<?xml version="1.0" encoding="UTF-8" standalone="no"?>
<!DOCTYPE svg PUBLIC "-//W3C//DTD SVG 1.1//EN"
 "http://www.w3.org/Graphics/SVG/1.1/DTD/svg11.dtd">
<!-- Generated by graphviz version 2.47.0 (20210316.0004)
 -->
<!-- Title: dependencies Pages: 1 -->
<svg width="504pt" height="211pt"
 viewBox="0.00 0.00 504.00 211.00" xmlns="http://www.w3.org/2000/svg" xmlns:xlink="http://www.w3.org/1999/xlink">
<g id="graph0" class="graph" transform="scale(1 1) rotate(0) translate(4 207)">
<title>dependencies</title>
<polygon fill="white" stroke="transparent" points="-4,4 -4,-207 500,-207 500,4 -4,4"/>
<text text-anchor="start" x="227.01" y="-42.4" font-family="Times-12" font-weight="bold" font-size="14.00">Legend</text>
<polygon fill="#ffffb3" stroke="transparent" points="14,-10 14,-30 34,-30 34,-10 14,-10"/>
<text text-anchor="start" x="37.63" y="-15.4" font-family="Times-12" font-size="14.00"> &#160;Declarations</text>
<polygon fill="#8dd3c7" stroke="transparent" points="127,-10 127,-30 147,-30 147,-10 127,-10"/>
<text text-anchor="start" x="150.73" y="-15.4" font-family="Times-12" font-size="14.00"> &#160;Module</text>
<polygon fill="#80b1d3" stroke="transparent" points="213,-10 213,-30 233,-30 233,-10 213,-10"/>
<text text-anchor="start" x="236.78" y="-15.4" font-family="Times-12" font-size="14.00"> &#160;Bootstrap</text>
<polygon fill="#fdb462" stroke="transparent" points="310,-10 310,-30 330,-30 330,-10 310,-10"/>
<text text-anchor="start" x="333.67" y="-15.4" font-family="Times-12" font-size="14.00"> &#160;Providers</text>
<polygon fill="#fb8072" stroke="transparent" points="406,-10 406,-30 426,-30 426,-10 406,-10"/>
<text text-anchor="start" x="429.73" y="-15.4" font-family="Times-12" font-size="14.00"> &#160;Exports</text>
<g id="clust1" class="cluster">
<title>cluster_AppModule</title>
<polygon fill="none" stroke="black" stroke-dasharray="1,5" points="54,-70 54,-195 442,-195 442,-70 54,-70"/>
</g>
<g id="clust3" class="cluster">
<title>cluster_AppModule_imports</title>
<polygon fill="none" stroke="black" points="62,-78 62,-130 434,-130 434,-78 62,-78"/>
</g>
<!-- ClientesModule -->
<g id="node1" class="node">
<title>ClientesModule</title>
<polygon fill="#8dd3c7" stroke="black" points="425.93,-122 422.93,-126 401.93,-126 398.93,-122 320.07,-122 320.07,-86 425.93,-86 425.93,-122"/>
<text text-anchor="middle" x="373" y="-99.8" font-family="Times,serif" font-size="14.00">ClientesModule</text>
</g>
<!-- AppModule -->
<g id="node4" class="node">
<title>AppModule</title>
<polygon fill="#8dd3c7" stroke="black" points="291.66,-187 288.66,-191 267.66,-191 264.66,-187 208.34,-187 208.34,-151 291.66,-151 291.66,-187"/>
<text text-anchor="middle" x="250" y="-164.8" font-family="Times,serif" font-size="14.00">AppModule</text>
</g>
<!-- ClientesModule&#45;&gt;AppModule -->
<g id="edge1" class="edge">
<title>ClientesModule&#45;&gt;AppModule</title>
<path fill="none" stroke="black" d="M373,-122.11C373,-141.34 373,-169 373,-169 373,-169 301.99,-169 301.99,-169"/>
<polygon fill="black" stroke="black" points="301.99,-165.5 291.99,-169 301.99,-172.5 301.99,-165.5"/>
</g>
<!-- PedidosModule -->
<g id="node2" class="node">
<title>PedidosModule</title>
<polygon fill="#8dd3c7" stroke="black" points="301.88,-122 298.88,-126 277.88,-126 274.88,-122 198.12,-122 198.12,-86 301.88,-86 301.88,-122"/>
<text text-anchor="middle" x="250" y="-99.8" font-family="Times,serif" font-size="14.00">PedidosModule</text>
</g>
<!-- PedidosModule&#45;&gt;AppModule -->
<g id="edge2" class="edge">
<title>PedidosModule&#45;&gt;AppModule</title>
<path fill="none" stroke="black" d="M250,-122.11C250,-122.11 250,-140.99 250,-140.99"/>
<polygon fill="black" stroke="black" points="246.5,-140.99 250,-150.99 253.5,-140.99 246.5,-140.99"/>
</g>
<!-- ProdutosModule -->
<g id="node3" class="node">
<title>ProdutosModule</title>
<polygon fill="#8dd3c7" stroke="black" points="179.83,-122 176.83,-126 155.83,-126 152.83,-122 70.17,-122 70.17,-86 179.83,-86 179.83,-122"/>
<text text-anchor="middle" x="125" y="-99.8" font-family="Times,serif" font-size="14.00">ProdutosModule</text>
</g>
<!-- ProdutosModule&#45;&gt;AppModule -->
<g id="edge3" class="edge">
<title>ProdutosModule&#45;&gt;AppModule</title>
<path fill="none" stroke="black" d="M125,-122.11C125,-141.34 125,-169 125,-169 125,-169 198.03,-169 198.03,-169"/>
<polygon fill="black" stroke="black" points="198.03,-172.5 208.03,-169 198.03,-165.5 198.03,-172.5"/>
</g>
</g>
</svg>
